# xmcd
#
# Track frame offsets:
#	150
#	12788
#	30984
#	45089
#	77646
#	86857
#	101389
#	125506
#	148510
#	158205
#	167107
#	177299
#	200724
#	215600
#	228177
#	240105
#	265162
#	272642
#	286197
#	298242
#	309841
#
# Disc length: 4334 seconds
#
# Revision: 1
# Processed by: cddbd v1.5.2PL0 Copyright (c) Steve Scherf et al.
# Submitted via: EZCDAudioConverter 7.0.6.1
#
DISCID=1410ec15
DTITLE=Pentangle - The Pentangle
DYEAR=2018
DGENRE=
TTITLE0=Let No Man Steal Your Thyme
TTITLE1=Bells
TTITLE2=Hear My Call
TTITLE3=Pentangling
TTITLE4=Mirage
TTITLE5=Way Behind The Sun
TTITLE6=Bruton Town
TTITLE7=Waltz
TTITLE8=Koan [Take 2]
TTITLE9=The Wheel
TTITLE10=The Casbah
TTITLE11=Bruton Town [Take 3]
TTITLE12=Hear My Call [Alternate Version]
TTITLE13=Way Behind The Sun [Alternate Version]
TTITLE14=Way Behind The Sun [Instrumental]
TTITLE15=Bruton Town [Take 5]
TTITLE16=Koan [Take 1]
TTITLE17=Travellin' Song [Non-LP Single Version With Strings]
TTITLE18=Poison [August 1967 Session]
TTITLE19=I Got A Feeling [August 1967 Session]
TTITLE20=Market Song [August 1967 Session]
EXTD=
EXTT0=
EXTT1=
EXTT2=
EXTT3=
EXTT4=
EXTT5=
EXTT6=
EXTT7=
EXTT8=
EXTT9=
EXTT10=
EXTT11=
EXTT12=
EXTT13=
EXTT14=
EXTT15=
EXTT16=
EXTT17=
EXTT18=
EXTT19=
EXTT20=
PLAYORDER=
